name GIL06_free2.mot
datacolumns 153
datarows 4
range 0.12499995 0.14999995
endheader

                time	           pelvis_tx	           pelvis_ty	           pelvis_tz	         pelvis_tilt	         pelvis_list	     pelvis_rotation	       hip_flexion_r	     hip_adduction_r	      hip_rotation_r	        knee_angle_r	       ankle_angle_r	    subtalar_angle_r	         mtp_angle_r	       hip_flexion_l	     hip_adduction_l	      hip_rotation_l	        knee_angle_l	       ankle_angle_l	    subtalar_angle_l	         mtp_angle_l	    lumbar_extension	      lumbar_bending	     lumbar_rotation	     ground_force_vx	     ground_force_vy	     ground_force_vz	     ground_force_px	     ground_force_py	     ground_force_pz	     ground_force_vx	     ground_force_vy	     ground_force_vz	     ground_force_px	     ground_force_py	     ground_force_pz	     ground_torque_x	     ground_torque_y	     ground_torque_z	     ground_torque_x	     ground_torque_y	     ground_torque_z	    ground_marker_px	    ground_marker_py	    ground_marker_pz	    ground_marker_px	    ground_marker_py	    ground_marker_pz	    ground_marker_px	    ground_marker_py	    ground_marker_pz	    ground_marker_px	    ground_marker_py	    ground_marker_pz	    ground_marker_px	    ground_marker_py	    ground_marker_pz	    ground_marker_px	    ground_marker_py	    ground_marker_pz	    ground_marker_px	    ground_marker_py	    ground_marker_pz	    ground_marker_px	    ground_marker_py	    ground_marker_pz	    ground_marker_px	    ground_marker_py	    ground_marker_pz	    ground_marker_px	    ground_marker_py	    ground_marker_pz	    ground_marker_px	    ground_marker_py	    ground_marker_pz	    ground_marker_px	    ground_marker_py	    ground_marker_pz	    ground_marker_px	    ground_marker_py	    ground_marker_pz	    ground_marker_px	    ground_marker_py	    ground_marker_pz	    ground_marker_px	    ground_marker_py	    ground_marker_pz	    ground_marker_px	    ground_marker_py	    ground_marker_pz	    ground_marker_px	    ground_marker_py	    ground_marker_pz	    ground_marker_px	    ground_marker_py	    ground_marker_pz	    ground_marker_px	    ground_marker_py	    ground_marker_pz	    ground_marker_px	    ground_marker_py	    ground_marker_pz	    ground_marker_px	    ground_marker_py	    ground_marker_pz	    ground_marker_px	    ground_marker_py	    ground_marker_pz	    ground_marker_px	    ground_marker_py	    ground_marker_pz	    ground_marker_px	    ground_marker_py	    ground_marker_pz	    ground_marker_px	    ground_marker_py	    ground_marker_pz	    ground_marker_px	    ground_marker_py	    ground_marker_pz	    ground_marker_px	    ground_marker_py	    ground_marker_pz	    ground_marker_px	    ground_marker_py	    ground_marker_pz	    ground_marker_px	    ground_marker_py	    ground_marker_pz	    ground_marker_px	    ground_marker_py	    ground_marker_pz	    ground_marker_px	    ground_marker_py	    ground_marker_pz	    ground_marker_px	    ground_marker_py	    ground_marker_pz	    ground_marker_px	    ground_marker_py	    ground_marker_pz	    ground_marker_px	    ground_marker_py	    ground_marker_pz	    ground_marker_px	    ground_marker_py	    ground_marker_pz	    ground_marker_px	    ground_marker_py	    ground_marker_pz	    ground_marker_px	    ground_marker_py	    ground_marker_pz	
          0.12499995	          0.15343218	          0.84337342	         -0.26670301	         -2.79867649	          4.59003592	         -6.77578545	         -2.02303028	         -8.14644814	          1.28401601	        -44.71820831	        -21.39586067	          0.00000000	          0.00000000	         17.76289177	          5.45002747	          0.43107948	         -3.65054083	        -11.56027031	          0.00000000	          0.00000000	         -4.32972240	         -1.55731678	          7.39877939	          0.00000000	          0.00000000	          0.00000000	          0.59647498	          0.00000000	         -0.18939691	       -112.99234338	        743.67974929	         14.25483905	          0.20058714	          0.00000000	         -0.31537915	          0.00000000	          0.00000000	          0.00000000	          0.00000000	          2.06360962	          0.00000000	          0.04817608	          0.76599079	         -0.28638273	          0.01799484	          0.76561779	         -0.21014252	          0.03890647	          0.77288491	         -0.36418900	         -0.02162322	          0.38441527	         -0.17844962	          0.12685406	          0.41917709	         -0.33384231	         -0.29201072	          0.15504257	         -0.21361887	          0.19357793	          0.05915257	         -0.31329638	          0.15343218	          0.84337342	         -0.26670301	          0.13709979	          0.83769768	         -0.14638969	          0.16976456	          0.84904915	         -0.38701630	         -0.09392306	          0.90907651	         -0.25925267	         -0.09137671	          0.91090512	         -0.31283090	         -0.02869004	          0.39103940	         -0.10760873	          0.13866030	          0.41606835	         -0.40429229	          0.01137126	          0.38141549	         -0.24871051	          0.09707879	          0.41398880	         -0.25781032	         -0.30374682	          0.16340318	         -0.17791714	          0.18117553	          0.05472877	         -0.35053694	         -0.27384105	          0.15678589	         -0.24738818	          0.18090333	          0.07549036	         -0.27334678	         -0.06695094	          1.33101261	         -0.28483528	          0.06516445	          1.27233076	         -0.24808058	          0.06543316	          1.27520800	         -0.32877544	          0.04872764	          1.26747406	         -0.30079049	          0.10584971	          1.19778299	         -0.30197632	          0.15179490	          0.54530299	         -0.08892788	          0.26034540	          0.63207525	         -0.32504979	          0.11876546	          0.56506443	         -0.11860043	          0.21520072	          0.63855827	         -0.34176978	          0.09468077	          0.49193841	         -0.12363575	          0.20893858	          0.56346548	         -0.33756343	         -0.13208868	          0.18401636	         -0.16025966	          0.16423091	          0.15461789	         -0.42258459	         -0.15350455	          0.22116825	         -0.17442550	          0.15759151	          0.16996962	         -0.37820676	         -0.26513311	          0.05531230	         -0.22290896	          0.29852292	          0.04955469	         -0.31777704	
          0.13333328	          0.16289845	          0.84480935	         -0.26836962	         -2.64213943	          4.76137638	         -6.47474670	         -0.74888802	         -8.79103088	          0.78650427	        -47.57371902	        -21.63824463	          0.00000000	          0.00000000	         16.85861969	          5.89189672	          0.36765325	         -3.46612477	        -11.06891537	          0.00000000	          0.00000000	         -4.34228659	         -1.68358469	          6.72301912	          0.00000000	          0.00000000	          0.00000000	          0.59820398	          0.00000000	         -0.18982866	       -108.24319458	        752.34583616	         17.66969218	          0.20100624	          0.00000000	         -0.31581802	          0.00000000	          0.00000000	          0.00000000	          0.00000000	          2.11411816	          0.00000000	          0.05777421	          0.76729769	         -0.28796721	          0.02795193	          0.76638716	         -0.21155690	          0.04817618	          0.77436990	         -0.36565974	         -0.00261946	          0.38285184	         -0.17579624	          0.13130984	          0.42001441	         -0.33524090	         -0.27776816	          0.16042461	         -0.21253200	          0.19428748	          0.05908303	         -0.31355357	          0.16289845	          0.84480935	         -0.26836962	          0.14717652	          0.83860373	         -0.14857313	          0.17862038	          0.85101497	         -0.38816607	         -0.08451510	          0.90951395	         -0.25935557	         -0.08210967	          0.91183007	         -0.31307071	         -0.01017448	          0.39004928	         -0.10506175	          0.14277105	          0.41665176	         -0.40573618	          0.03199862	          0.37971571	         -0.24573228	          0.11742271	          0.40725738	         -0.25558907	         -0.28932375	          0.16881418	         -0.17677821	          0.18149307	          0.05462116	         -0.35065672	         -0.25990278	          0.16193062	         -0.24619614	          0.18131541	          0.07546622	         -0.27354231	         -0.05762570	          1.33181095	         -0.28543186	          0.07466410	          1.27330625	         -0.24876875	          0.07549523	          1.27622080	         -0.32896534	          0.05852509	          1.26844728	         -0.30123952	          0.11589547	          1.19887686	         -0.30217677	          0.16702630	          0.54861999	         -0.08677986	          0.26825279	          0.63209516	         -0.32729107	          0.13415112	          0.56682050	         -0.11628977	          0.21706297	          0.63691509	         -0.34615228	          0.11178797	          0.49307713	         -0.12092779	          0.21684746	          0.56406611	         -0.34001365	         -0.11714163	          0.18511783	         -0.15882838	          0.16493884	          0.15452373	         -0.42319354	         -0.13806790	          0.22291242	         -0.17307095	          0.15805711	          0.16995664	         -0.37848020	         -0.25376517	          0.05942905	         -0.22119498	          0.29862413	          0.04937483	         -0.31772405	
          0.14166662	          0.17211820	          0.84605104	         -0.26993790	         -2.53385162	          4.91908073	         -6.14624166	          0.68784523	         -9.33766747	          0.20646790	        -50.53741455	        -20.91856575	          0.00000000	          0.00000000	         15.99052048	          6.29043770	          0.32444179	         -3.24525213	        -10.58453083	          0.00000000	          0.00000000	         -4.35821152	         -1.92298961	          6.20992184	          0.00000000	          0.00000000	          0.00000000	          0.60000366	          0.00000000	         -0.19031323	       -104.04936261	        763.17424224	         22.01358925	          0.20154453	          0.00000000	         -0.31632751	          0.00000000	          0.00000000	          0.00000000	          0.00000000	          2.17061865	          0.00000000	          0.06710474	          0.76843500	         -0.28933972	          0.03763402	          0.76707530	         -0.21279663	          0.05709318	          0.77573740	         -0.36696124	          0.01710722	          0.38150868	         -0.17348184	          0.13544627	          0.42068246	         -0.33666438	         -0.26284686	          0.16587076	         -0.21165164	          0.19486529	          0.05901787	         -0.31381741	          0.17211820	          0.84605104	         -0.26993790	          0.15704909	          0.83934307	         -0.15055330	          0.18718731	          0.85275900	         -0.38932249	         -0.07531676	          0.90997148	         -0.25945386	         -0.07300741	          0.91274410	         -0.31324288	          0.00892449	          0.38914502	         -0.10286329	          0.14652362	          0.41710731	         -0.40721053	          0.05276054	          0.37692413	         -0.24108928	          0.12181168	          0.40927178	         -0.25911272	         -0.27407777	          0.17409769	         -0.17575689	          0.18172505	          0.05452305	         -0.35079554	         -0.24570896	          0.16655447	         -0.24526832	          0.18213166	          0.07576961	         -0.27381936	         -0.04822638	          1.33268309	         -0.28677335	          0.08420331	          1.27428091	         -0.24904548	          0.08531278	          1.27711117	         -0.32917032	          0.06809445	          1.26941061	         -0.30162978	          0.12571801	          1.19984829	         -0.30219486	          0.18202300	          0.55218047	         -0.08470640	          0.27589718	          0.63161993	         -0.32951257	          0.14924732	          0.56926084	         -0.11437009	          0.22704598	          0.63791466	         -0.34694886	          0.12853496	          0.49419329	         -0.11781932	          0.22481166	          0.56419086	         -0.34193012	         -0.10144792	          0.18634216	         -0.15828639	          0.16557573	          0.15443908	         -0.42383054	         -0.12245444	          0.22512579	         -0.17313279	          0.15889968	          0.16990386	         -0.37909752	         -0.24031299	          0.06392711	         -0.21908233	          0.29864711	          0.04922676	         -0.31777075	
          0.14999995	          0.18113910	          0.84705842	         -0.27136475	         -2.47992516	          5.04962492	         -5.80038929	          2.27281952	         -9.77431202	         -0.39585426	        -53.52478027	        -19.46466827	          0.00000000	          0.00000000	         15.17780685	          6.63276863	          0.26168692	         -3.02501559	        -10.09485245	          0.00000000	          0.00000000	         -4.36361217	         -2.21508288	          6.14595842	          0.00000000	          0.00000000	          0.00000000	          0.60184216	          0.00000000	         -0.19081902	       -100.88843423	        774.45285398	         26.52249795	          0.20220891	          0.00000000	         -0.31685599	          0.00000000	          0.00000000	          0.00000000	          0.00000000	          2.23683521	          0.00000000	          0.07602167	          0.76942897	         -0.29056510	          0.04707210	          0.76767296	         -0.21381234	          0.06570844	          0.77693546	         -0.36804369	          0.03744454	          0.38047013	         -0.17148364	          0.13937914	          0.42120841	         -0.33802041	         -0.24716197	          0.17119528	         -0.21097998	          0.19529593	          0.05896050	         -0.31407019	          0.18113910	          0.84705842	         -0.27136475	          0.16674542	          0.83990461	         -0.15224494	          0.19553277	          0.85421228	         -0.39048457	         -0.06629717	          0.91044849	         -0.25957364	         -0.06404920	          0.91364408	         -0.31338274	          0.02857054	          0.38839808	         -0.10098080	          0.14999545	          0.41744778	         -0.40862778	          0.07382214	          0.37425509	         -0.23706304	          0.12507744	          0.41124445	         -0.26098052	         -0.25798348	          0.17910048	         -0.17488772	          0.18187852	          0.05445126	         -0.35094687	         -0.23050442	          0.17156976	         -0.24471869	          0.18275660	          0.07638849	         -0.27415961	         -0.03869960	          1.33357167	         -0.28831166	          0.09397490	          1.27514613	         -0.24937503	          0.09470204	          1.27786696	         -0.32964778	          0.07746117	          1.27037370	         -0.30195457	          0.13524425	          1.20064461	         -0.30268595	          0.19681145	          0.55599546	         -0.08284651	          0.28325206	          0.63057047	         -0.33176160	          0.16358139	          0.57182652	         -0.11302128	          0.23531540	          0.63787550	         -0.34866393	          0.14493430	          0.49561992	         -0.11529117	          0.23132406	          0.56364197	         -0.34381303	         -0.08497911	          0.18766856	         -0.15845108	          0.16623782	          0.15437947	         -0.42444322	         -0.10539886	          0.22809631	         -0.17388518	          0.15986231	          0.16996241	         -0.38009953	         -0.22484922	          0.06854223	         -0.21666211	          0.29862466	          0.04908948	         -0.31789050	
